<svg width="20" height="18" viewBox="0 0 20 18" fill="none" xmlns="http://www.w3.org/2000/svg">
<g clip-path="url(#clip0_583_2090)">
<path d="M2.70744 0.292431C2.51884 0.110272 2.26624 0.00947813 2.00404 0.0117566C1.74184 0.014035 1.49103 0.119204 1.30562 0.304612C1.12022 0.49002 1.01505 0.740832 1.01277 1.00303C1.01049 1.26523 1.11128 1.51783 1.29344 1.70643L3.71744 4.13043C2.28744 5.20643 1.03944 6.68443 0.106442 8.55243C0.037084 8.69123 0.000976562 8.84427 0.000976562 8.99943C0.000976563 9.1546 0.037084 9.30763 0.106442 9.44643C2.26444 13.7634 6.09644 15.9994 10.0004 15.9994C11.5554 15.9994 13.1004 15.6444 14.5304 14.9444L17.2934 17.7064C17.482 17.8886 17.7346 17.9894 17.9968 17.9871C18.259 17.9848 18.5099 17.8797 18.6953 17.6942C18.8807 17.5088 18.9858 17.258 18.9881 16.9958C18.9904 16.7336 18.8896 16.481 18.7074 16.2924L2.70744 0.292431ZM13.0144 13.4274C12.0344 13.8104 11.0144 13.9994 10.0004 13.9994C7.03144 13.9994 3.99844 12.3794 2.13044 8.99943C2.94744 7.52043 3.98844 6.37943 5.14844 5.56243L7.29244 7.70643C7.02453 8.26638 6.93691 8.89566 7.04166 9.5075C7.14641 10.1193 7.43838 10.6836 7.87731 11.1226C8.31625 11.5615 8.88053 11.8535 9.49237 11.9582C10.1042 12.063 10.7335 11.9753 11.2934 11.7074L13.0144 13.4274ZM16.5524 10.8954C17.0354 10.3394 17.4784 9.70843 17.8704 8.99943C16.0024 5.61943 12.9704 3.99943 10.0004 3.99943C9.88844 3.99943 9.77644 4.00176 9.66444 4.00643L7.87944 2.22243C8.57671 2.07419 9.28759 1.99944 10.0004 1.99943C13.9034 1.99943 17.7364 4.23543 19.8944 8.55243C19.9638 8.69123 19.9999 8.84427 19.9999 8.99943C19.9999 9.1546 19.9638 9.30763 19.8944 9.44643C19.383 10.4827 18.7356 11.4462 17.9694 12.3114L16.5524 10.8954Z" fill="#787575"/>
</g>
<defs>
<clipPath id="clip0_583_2090">
<rect width="20" height="18" fill="white"/>
</clipPath>
</defs>
</svg>
